<svg width="118" height="62" viewBox="0 0 118 62" fill="none" xmlns="http://www.w3.org/2000/svg">
<path d="M4.13086 56H7.79297V23.0117C7.79297 22.3672 7.77344 21.5664 7.73438 20.6094C7.69531 19.6523 7.65625 19.0176 7.61719 18.7051H7.79297C7.83203 19.0371 7.98828 19.6816 8.26172 20.6387C8.53516 21.5762 8.78906 22.3672 9.02344 23.0117L21.1523 56H24.7852L36.8555 23.0117C37.0898 22.3477 37.3242 21.6348 37.5586 20.873C37.8125 20.0918 38.0078 19.3691 38.1445 18.7051H38.3203C38.2422 19.3301 38.1934 20.043 38.1738 20.8438C38.1738 21.6445 38.1738 22.3672 38.1738 23.0117V56H42.0117V13.3438H36.7969L24.3164 47.4746C24.082 48.1191 23.8574 48.7637 23.6426 49.4082C23.4473 50.0527 23.2812 50.7168 23.1445 51.4004H22.998C22.8418 50.7168 22.6562 50.0527 22.4414 49.4082C22.2461 48.7637 22.0312 48.1191 21.7969 47.4746L9.25781 13.3438H4.13086V56Z" fill="#B98B59"/>
<path d="M38.1309 56H42.0273V37.8945H49.7617C53.8242 37.8945 56.8906 36.752 58.9609 34.4668C61.0508 32.1816 62.0957 29.2031 62.0957 25.5312C62.0957 21.8984 61.0508 18.959 58.9609 16.7129C56.8906 14.4668 53.8242 13.3438 49.7617 13.3438H38.1309V56ZM42.0273 34.584V16.7129H49.7617C52.9062 16.7324 55.0938 17.5625 56.3242 19.2031C57.5742 20.8242 58.1992 22.9434 58.1992 25.5605C58.1992 28.1582 57.5742 30.3164 56.3242 32.0352C55.0938 33.7344 52.9062 34.584 49.7617 34.584H42.0273ZM59.4883 56H63.8828L53.248 35.8438L49.2051 36.2539L59.4883 56Z" fill="#B98B59"/>
<path d="M57.7539 35.873C57.7539 42.4746 59.1797 47.5918 62.0312 51.2246C64.9023 54.8574 68.9355 56.6738 74.1309 56.6738C77.4707 56.6738 80.2637 56.0977 82.5098 54.9453C84.7559 53.7734 86.3281 52.6797 87.2266 51.6641V35.4922H73.4863V38.8027H83.4766V50.3457C82.1875 51.3809 80.8105 52.1328 79.3457 52.6016C77.8809 53.0703 76.1426 53.3047 74.1309 53.3047C70.2051 53.3047 67.1484 51.791 64.9609 48.7637C62.793 45.7363 61.709 41.4395 61.709 35.873V33.4707C61.709 27.9043 62.7441 23.6172 64.8145 20.6094C66.8848 17.6016 69.7363 16.0977 73.3691 16.0977C76.6309 16.0977 79.1016 16.9668 80.7812 18.7051C82.4609 20.4238 83.3008 22.582 83.3008 25.1797V25.9121H87.2266V25.1797C87.1484 21.5664 85.9277 18.5781 83.5645 16.2148C81.2012 13.8516 77.8125 12.6699 73.3984 12.6699C68.5352 12.6699 64.707 14.4863 61.9141 18.1191C59.1406 21.752 57.7539 26.8691 57.7539 33.4707V35.873Z" fill="#B98B59"/>
<path d="M82.7949 56H86.6328L97.5605 21.3418C97.7949 20.5801 98 19.9062 98.1758 19.3203C98.3516 18.7148 98.5371 18.0605 98.7324 17.3574H98.8789C99.0547 18.0605 99.2305 18.7148 99.4062 19.3203C99.582 19.9062 99.7871 20.5801 100.021 21.3418L111.008 56H115.021L101.223 13.2559H96.5938L82.7949 56ZM88.4785 44.0762H109.279L108.195 40.8242H89.5332L88.4785 44.0762Z" fill="#B98B59"/>
</svg>
